<svg width="886.622" height="74.414" viewBox="0 0 886.622 74.414"><g id="svgGroup" stroke-linecap="round" fill-rule="evenodd" font-size="9pt" stroke="#000" stroke-width="0.25mm" fill="none" style="stroke:#000;stroke-width:0.25mm;fill:none"><path d="M 660.254 35.889 L 660.254 72.217 L 639.307 72.217 L 639.307 24.854 A 2.619 2.619 0 0 0 638.681 24.663 Q 638.381 24.609 638.038 24.609 L 636.475 24.609 Q 632.666 24.609 627.588 29.834 A 32.07 32.07 0 0 0 625.011 32.856 A 35.863 35.863 0 0 0 624.61 33.398 L 624.61 72.217 L 603.614 72.217 L 603.614 20.068 L 624.61 20.068 L 624.61 27.93 A 31.394 31.394 0 0 1 631.003 22.646 A 22.709 22.709 0 0 1 643.067 19.189 A 26.987 26.987 0 0 1 648.86 19.762 Q 656.995 21.555 659.327 28.955 A 32.16 32.16 0 0 1 664.321 24.266 A 26.492 26.492 0 0 1 668.58 21.655 A 24.36 24.36 0 0 1 674.925 19.536 A 21.452 21.452 0 0 1 678.76 19.189 A 29.194 29.194 0 0 1 683.55 19.555 Q 686.067 19.975 688.058 20.876 A 12.386 12.386 0 0 1 691.7 23.34 Q 695.899 27.49 695.899 35.889 L 695.899 72.217 L 674.952 72.217 L 674.952 24.805 A 1.304 1.304 0 0 0 674.696 24.729 Q 674.264 24.638 673.368 24.616 A 25.388 25.388 0 0 0 672.754 24.609 A 8.201 8.201 0 0 0 670.372 24.948 A 7.465 7.465 0 0 0 669.507 25.269 A 13.967 13.967 0 0 0 667.833 26.158 A 18.385 18.385 0 0 0 666.456 27.1 A 26.692 26.692 0 0 0 662.393 30.785 A 33.515 33.515 0 0 0 660.157 33.545 Q 660.254 34.717 660.254 35.889 Z M 347.559 74.414 L 322.657 20.068 L 344.776 20.068 L 357.276 46.338 L 372.022 17.822 L 387.403 46.68 L 394.385 30.859 Q 396.583 25.831 397.262 23.454 A 12.462 12.462 0 0 0 397.437 22.778 Q 397.95 20.508 398.633 19.849 A 2.245 2.245 0 0 1 400.245 19.189 A 2.033 2.033 0 0 1 400.974 19.316 A 1.808 1.808 0 0 1 401.734 19.873 Q 402.242 20.492 402.29 20.971 A 0.986 0.986 0 0 1 402.295 21.069 A 6.469 6.469 0 0 1 402.254 21.811 A 5.684 5.684 0 0 1 402.222 22.046 Q 402.167 22.396 401.959 23.051 A 22.363 22.363 0 0 1 401.807 23.511 A 15.724 15.724 0 0 1 401.609 24.055 Q 401.376 24.663 401.026 25.459 A 57.178 57.178 0 0 1 400.684 26.221 L 379.639 74.414 L 363.331 43.213 L 347.559 74.414 Z M 110.303 72.217 L 110.303 25.391 A 4.8 4.8 0 0 0 107.666 24.609 A 6.734 6.734 0 0 0 105.812 24.88 A 8.633 8.633 0 0 0 104.737 25.269 A 15.475 15.475 0 0 0 103.186 26.056 Q 102.405 26.507 101.589 27.081 A 24.914 24.914 0 0 0 101.563 27.1 A 24.921 24.921 0 0 0 97.685 30.588 A 32.629 32.629 0 0 0 95.166 33.74 L 95.166 72.217 L 74.17 72.217 L 74.17 20.068 L 95.166 20.068 L 95.166 28.418 A 31.892 31.892 0 0 1 101.452 22.977 A 22.79 22.79 0 0 1 114.063 19.189 A 25.711 25.711 0 0 1 120.779 19.989 Q 131.299 22.842 131.299 35.889 L 131.299 72.217 L 110.303 72.217 Z M 811.475 72.217 L 811.475 25.391 A 4.8 4.8 0 0 0 808.838 24.609 A 6.734 6.734 0 0 0 806.984 24.88 A 8.633 8.633 0 0 0 805.909 25.269 A 15.475 15.475 0 0 0 804.358 26.056 Q 803.577 26.507 802.761 27.081 A 24.914 24.914 0 0 0 802.735 27.1 A 24.921 24.921 0 0 0 798.857 30.588 A 32.629 32.629 0 0 0 796.338 33.74 L 796.338 72.217 L 775.342 72.217 L 775.342 20.068 L 796.338 20.068 L 796.338 28.418 A 31.892 31.892 0 0 1 802.623 22.977 A 22.79 22.79 0 0 1 815.235 19.189 A 25.711 25.711 0 0 1 821.951 19.989 Q 832.471 22.842 832.471 35.889 L 832.471 72.217 L 811.475 72.217 Z M 460.401 6.348 L 460.401 68.945 A 45.656 45.656 0 0 0 463.23 69.345 Q 464.967 69.531 466.456 69.531 Q 469.092 69.531 471.827 69.189 A 33.501 33.501 0 0 0 477.198 68.066 Q 481.797 66.698 484.621 64.323 A 13.226 13.226 0 0 0 486.084 62.891 Q 486.933 61.888 487.507 61.373 A 4.972 4.972 0 0 1 487.793 61.133 A 2.336 2.336 0 0 1 489.258 60.645 Q 491.26 60.645 491.26 62.891 Q 491.26 64.746 488.428 66.602 A 59.537 59.537 0 0 1 485.294 68.535 Q 482.313 70.24 479.984 71.004 A 16.487 16.487 0 0 1 479.541 71.143 A 50.067 50.067 0 0 1 465.517 73.144 A 55.633 55.633 0 0 1 465.284 73.145 Q 457.813 73.145 450.904 70.483 A 35.414 35.414 0 0 1 442.19 65.691 A 31.991 31.991 0 0 1 439.112 63.037 A 33.839 33.839 0 0 1 429.109 41.422 A 46.068 46.068 0 0 1 428.907 37.061 A 35.561 35.561 0 0 1 430.207 27.321 A 31.765 31.765 0 0 1 431.788 22.974 Q 434.668 16.553 439.747 11.963 A 37.29 37.29 0 0 1 461.203 2.546 A 49.94 49.94 0 0 1 466.748 2.246 A 45.377 45.377 0 0 1 474.826 2.933 A 34.147 34.147 0 0 1 482.813 5.371 A 47.809 47.809 0 0 1 485.319 6.564 Q 488.885 8.402 489.838 9.895 A 1.947 1.947 0 0 1 490.186 10.938 A 2.341 2.341 0 0 1 489.576 12.549 A 2.321 2.321 0 0 1 489.115 12.952 A 1.672 1.672 0 0 1 488.184 13.232 A 3.447 3.447 0 0 1 486.11 12.529 A 5.122 5.122 0 0 1 485.352 11.841 Q 484.082 10.449 481.91 9.326 Q 479.737 8.203 477.149 7.373 A 40.838 40.838 0 0 0 472.717 6.272 Q 470.412 5.841 468.321 5.774 A 23.868 23.868 0 0 0 467.554 5.762 A 52.623 52.623 0 0 0 464.641 5.837 Q 463.276 5.913 462.105 6.065 A 23.114 23.114 0 0 0 460.401 6.348 Z M 184.229 72.217 L 184.229 69.531 A 24.956 24.956 0 0 1 171.314 73.145 A 38.836 38.836 0 0 1 165.387 72.714 A 28.212 28.212 0 0 1 159.351 71.118 A 26.622 26.622 0 0 1 152.588 67.286 A 24.362 24.362 0 0 1 150.538 65.479 A 25.482 25.482 0 0 1 143.151 49.873 A 35.047 35.047 0 0 1 142.92 45.801 A 27.537 27.537 0 0 1 144.628 35.951 A 24.788 24.788 0 0 1 150.44 27.1 A 27.022 27.022 0 0 1 166.117 19.541 A 37.464 37.464 0 0 1 171.338 19.189 A 28.819 28.819 0 0 1 184.229 22.168 L 184.229 3.125 L 204.346 3.125 L 204.346 72.217 L 184.229 72.217 Z M 318.409 47.9 L 286.182 47.9 L 286.182 68.848 A 31.94 31.94 0 0 0 289.71 69.36 A 43.326 43.326 0 0 0 293.653 69.531 A 21.134 21.134 0 0 0 308.643 63.721 A 38.427 38.427 0 0 0 309.232 63.12 Q 309.84 62.484 310.219 62.017 A 7.839 7.839 0 0 0 310.45 61.719 Q 311.573 60.352 312.745 60.352 A 2.991 2.991 0 0 1 313.475 60.433 Q 314.649 60.729 314.649 62.109 A 2.623 2.623 0 0 1 314.449 63.068 Q 314.135 63.868 313.324 64.809 A 12.208 12.208 0 0 1 312.94 65.234 Q 305.225 73.145 291.797 73.145 A 33.054 33.054 0 0 1 281.327 71.546 A 28.164 28.164 0 0 1 271.485 65.869 A 24.312 24.312 0 0 1 262.974 48.17 A 30.36 30.36 0 0 1 262.94 46.729 A 29.595 29.595 0 0 1 264.417 37.193 A 25.022 25.022 0 0 1 270.655 27.295 A 27.327 27.327 0 0 1 285.528 19.761 A 38.827 38.827 0 0 1 292.334 19.189 A 29.44 29.44 0 0 1 301.663 20.614 A 25.05 25.05 0 0 1 310.547 25.781 Q 318.506 32.861 318.506 44.385 A 63.591 63.591 0 0 1 318.46 46.76 A 75.203 75.203 0 0 1 318.409 47.9 Z M 591.114 47.9 L 558.887 47.9 L 558.887 68.848 A 31.94 31.94 0 0 0 562.415 69.36 A 43.326 43.326 0 0 0 566.358 69.531 A 21.134 21.134 0 0 0 581.348 63.721 A 38.427 38.427 0 0 0 581.937 63.12 Q 582.545 62.484 582.924 62.017 A 7.839 7.839 0 0 0 583.155 61.719 Q 584.278 60.352 585.45 60.352 A 2.991 2.991 0 0 1 586.18 60.433 Q 587.354 60.729 587.354 62.109 A 2.623 2.623 0 0 1 587.154 63.068 Q 586.84 63.868 586.029 64.809 A 12.208 12.208 0 0 1 585.645 65.234 Q 577.93 73.145 564.502 73.145 A 33.054 33.054 0 0 1 554.032 71.546 A 28.164 28.164 0 0 1 544.19 65.869 A 24.312 24.312 0 0 1 535.679 48.17 A 30.36 30.36 0 0 1 535.645 46.729 A 29.595 29.595 0 0 1 537.122 37.193 A 25.022 25.022 0 0 1 543.36 27.295 A 27.327 27.327 0 0 1 558.233 19.761 A 38.827 38.827 0 0 1 565.04 19.189 A 29.44 29.44 0 0 1 574.368 20.614 A 25.05 25.05 0 0 1 583.252 25.781 Q 591.211 32.861 591.211 44.385 A 63.591 63.591 0 0 1 591.165 46.76 A 75.203 75.203 0 0 1 591.114 47.9 Z M 762.842 47.9 L 730.616 47.9 L 730.616 68.848 A 31.94 31.94 0 0 0 734.144 69.36 A 43.326 43.326 0 0 0 738.086 69.531 A 21.134 21.134 0 0 0 753.077 63.721 A 38.427 38.427 0 0 0 753.666 63.12 Q 754.274 62.484 754.652 62.017 A 7.839 7.839 0 0 0 754.883 61.719 Q 756.006 60.352 757.178 60.352 A 2.991 2.991 0 0 1 757.909 60.433 Q 759.082 60.729 759.082 62.109 A 2.623 2.623 0 0 1 758.883 63.068 Q 758.568 63.868 757.758 64.809 A 12.208 12.208 0 0 1 757.373 65.234 Q 749.659 73.145 736.231 73.145 A 33.054 33.054 0 0 1 725.761 71.546 A 28.164 28.164 0 0 1 715.918 65.869 A 24.312 24.312 0 0 1 707.407 48.17 A 30.36 30.36 0 0 1 707.373 46.729 A 29.595 29.595 0 0 1 708.85 37.193 A 25.022 25.022 0 0 1 715.088 27.295 A 27.327 27.327 0 0 1 729.962 19.761 A 38.827 38.827 0 0 1 736.768 19.189 A 29.44 29.44 0 0 1 746.097 20.614 A 25.05 25.05 0 0 1 754.981 25.781 Q 762.94 32.861 762.94 44.385 A 63.591 63.591 0 0 1 762.894 46.76 A 75.203 75.203 0 0 1 762.842 47.9 Z M 867.774 60.596 L 863.477 57.129 A 179.51 179.51 0 0 1 858.573 53.174 Q 853.73 49.115 850.836 45.966 A 33.617 33.617 0 0 1 848.877 43.652 A 19.514 19.514 0 0 1 846.538 39.772 A 14.101 14.101 0 0 1 845.264 33.984 Q 845.264 27.783 850.977 23.584 A 21.29 21.29 0 0 1 858.721 20.031 Q 861.729 19.295 865.245 19.203 A 38.809 38.809 0 0 1 866.26 19.189 A 46.85 46.85 0 0 1 870.108 19.337 Q 873.912 19.652 876.485 20.635 A 14.035 14.035 0 0 1 876.661 20.703 A 47.059 47.059 0 0 1 878.425 21.443 Q 880.177 22.224 881.276 22.927 A 8.99 8.99 0 0 1 882.032 23.462 A 7.782 7.782 0 0 1 882.678 24.033 Q 883.594 24.947 883.594 25.732 A 3.897 3.897 0 0 1 883.526 26.499 Q 883.285 27.694 882.196 27.818 A 2.326 2.326 0 0 1 881.934 27.832 A 2.109 2.109 0 0 1 880.703 27.432 A 2.758 2.758 0 0 1 880.494 27.271 A 10.592 10.592 0 0 0 880.114 26.964 Q 879.549 26.528 878.541 25.823 A 105.41 105.41 0 0 0 877.881 25.366 Q 876.316 24.29 873.936 23.575 A 23.56 23.56 0 0 0 872.706 23.242 A 29.236 29.236 0 0 0 869.593 22.656 A 22.438 22.438 0 0 0 866.7 22.461 A 14.045 14.045 0 0 0 865.41 22.516 Q 864.075 22.639 863.257 23.041 A 2.907 2.907 0 0 0 862.769 23.34 A 4.822 4.822 0 0 0 862.267 23.778 Q 861.622 24.432 861.622 25.073 A 3.87 3.87 0 0 0 861.963 26.685 Q 862.305 27.441 863.233 28.467 A 22.161 22.161 0 0 0 864.828 30.144 Q 866.576 31.816 869.226 33.811 A 82.716 82.716 0 0 0 870.118 34.473 Q 873.744 37.127 876.511 39.438 A 80.899 80.899 0 0 1 878.125 40.82 Q 881.397 43.701 883.252 46.143 Q 886.622 50.537 886.622 55.029 A 20.374 20.374 0 0 1 886.326 58.589 Q 885.95 60.71 885.094 62.458 A 12.633 12.633 0 0 1 884.961 62.72 Q 883.301 65.918 880.225 68.213 Q 873.731 73.145 862.891 73.145 A 37.612 37.612 0 0 1 856.54 72.638 Q 852.975 72.027 850.048 70.678 A 21.398 21.398 0 0 1 848.389 69.824 Q 845.73 68.339 844.951 66.878 A 2.543 2.543 0 0 1 844.629 65.674 A 2.002 2.002 0 0 1 845.036 64.466 A 2.573 2.573 0 0 1 845.142 64.331 A 1.649 1.649 0 0 1 846.344 63.725 A 2.152 2.152 0 0 1 846.485 63.721 A 2.312 2.312 0 0 1 847.128 63.806 A 1.806 1.806 0 0 1 847.852 64.209 L 849.073 65.332 A 16.81 16.81 0 0 0 855.499 68.766 Q 858.019 69.507 861.035 69.704 A 34.506 34.506 0 0 0 863.282 69.775 A 23.11 23.11 0 0 0 865.884 69.641 Q 868.543 69.338 870.026 68.355 A 4.248 4.248 0 0 0 871.192 67.236 A 2.842 2.842 0 0 0 871.521 66.644 A 2.132 2.132 0 0 0 871.68 65.845 A 3.591 3.591 0 0 0 871.412 64.478 Q 871.169 63.882 870.429 63.048 A 12.517 12.517 0 0 0 870.264 62.866 A 15.103 15.103 0 0 0 869.643 62.235 Q 868.882 61.502 867.774 60.596 Z M 34.082 63.525 L 20.411 63.525 Q 13.078 63.525 9.56 63.427 A 82.289 82.289 0 0 1 8.204 63.379 L 6.788 66.748 A 35.04 35.04 0 0 0 5.751 69.338 A 38.542 38.542 0 0 0 5.616 69.727 A 8.465 8.465 0 0 1 5.062 70.943 Q 4.039 72.754 2.491 72.754 A 2.397 2.397 0 0 1 1.781 72.653 A 1.923 1.923 0 0 1 0.977 72.168 A 2.457 2.457 0 0 1 0.656 71.778 Q 0.48 71.51 0.421 71.231 A 1.366 1.366 0 0 1 0.391 70.947 A 2.996 2.996 0 0 1 0.55 70.016 Q 0.775 69.327 1.319 68.555 Q 2.426 67.005 3.505 64.729 A 42.629 42.629 0 0 0 4.2 63.184 A 13.177 13.177 0 0 1 2.773 62.979 Q 1.338 62.684 0.646 62.095 A 1.709 1.709 0 0 1 0 60.742 A 2.494 2.494 0 0 1 0.14 59.871 Q 0.579 58.691 2.393 58.691 A 10.76 10.76 0 0 1 3.664 58.772 Q 4.651 58.89 5.811 59.18 L 30.176 0 L 63.575 72.217 L 38.135 72.217 L 34.082 63.525 Z M 220.313 72.217 L 220.313 20.068 L 241.309 20.068 L 241.309 35.4 Q 244.601 27.241 248.383 23.302 A 17.899 17.899 0 0 1 248.56 23.12 A 17.477 17.477 0 0 1 250.928 21.09 Q 252.343 20.095 253.762 19.621 A 8.117 8.117 0 0 1 256.348 19.189 Q 258.259 19.189 259.486 20.057 A 4.085 4.085 0 0 1 259.839 20.337 A 4.516 4.516 0 0 1 260.576 21.158 A 3.028 3.028 0 0 1 261.133 22.9 A 8.339 8.339 0 0 1 261.091 23.767 Q 261.047 24.191 260.956 24.544 A 3.422 3.422 0 0 1 260.743 25.146 A 4.584 4.584 0 0 1 259.91 26.373 A 4.317 4.317 0 0 1 259.717 26.562 A 6.436 6.436 0 0 1 258.957 27.173 Q 258.056 27.783 257.227 27.783 A 14.093 14.093 0 0 1 256.285 27.754 Q 255.402 27.695 254.82 27.514 A 2.982 2.982 0 0 1 254.493 27.393 A 9.418 9.418 0 0 0 253.449 26.99 Q 252.906 26.819 252.415 26.752 A 4.511 4.511 0 0 0 251.807 26.709 A 2.009 2.009 0 0 0 251.034 26.884 Q 250.085 27.282 248.829 28.589 A 15.348 15.348 0 0 0 247.392 30.344 Q 246.741 31.261 246.111 32.378 A 31.794 31.794 0 0 0 245.362 33.789 A 38.755 38.755 0 0 0 241.309 51.367 L 241.309 72.217 L 220.313 72.217 Z M 503.174 72.217 L 503.174 3.125 L 524.17 3.125 L 524.17 72.217 L 503.174 72.217 Z M 167.481 22.949 L 167.481 69.238 A 21.436 21.436 0 0 0 169.793 69.49 A 26.496 26.496 0 0 0 171.29 69.531 A 21.573 21.573 0 0 0 182.095 66.584 A 27.189 27.189 0 0 0 184.229 65.234 L 184.229 26.514 Q 177.637 22.754 170.362 22.754 A 21.086 21.086 0 0 0 168.174 22.864 A 18.405 18.405 0 0 0 167.481 22.949 Z M 20.264 33.643 L 9.766 59.57 A 123.039 123.039 0 0 0 13.946 59.851 Q 16.193 59.961 18.165 59.961 L 32.471 59.961 L 20.264 33.643 Z M 299.707 44.336 L 299.707 23.682 A 22.463 22.463 0 0 0 295.988 22.944 A 30.061 30.061 0 0 0 292.53 22.754 A 48.814 48.814 0 0 0 290.189 22.806 Q 287.793 22.922 286.182 23.291 L 286.182 44.336 L 299.707 44.336 Z M 572.413 44.336 L 572.413 23.682 A 22.463 22.463 0 0 0 568.693 22.944 A 30.061 30.061 0 0 0 565.235 22.754 A 48.814 48.814 0 0 0 562.895 22.806 Q 560.498 22.922 558.887 23.291 L 558.887 44.336 L 572.413 44.336 Z M 744.141 44.336 L 744.141 23.682 A 22.463 22.463 0 0 0 740.421 22.944 A 30.061 30.061 0 0 0 736.963 22.754 A 48.814 48.814 0 0 0 734.623 22.806 Q 732.227 22.922 730.616 23.291 L 730.616 44.336 L 744.141 44.336 Z" vector-effect="non-scaling-stroke"/></g></svg>
